DataType=double
version=3
OpenSimVersion=4.5.2-2025-05-03-6a4c6ec41
endheader
time	q	/jointset/head_joint/q/speed
2.499999999999836	-0.3896556895718936	-0.9734329707966934
2.500999999999836	-0.3906286487929456	-0.9724819314614906
2.501999999999835	-0.3916006928714225	-0.9716026903920765
2.502999999999835	-0.3925718902439455	-0.9707885240496666
2.503999999999835	-0.3935423028265045	-0.970033114734974
2.504999999999835	-0.3945119865661821	-0.9693308423541719
2.505999999999835	-0.3954809920623437	-0.9686766315868058
2.506999999999835	-0.3964493650945565	-0.9680659181747763
2.507999999999835	-0.3974171471055055	-0.9674945926272803
2.508999999999835	-0.3983843756336721	-0.966958956042918
2.509999999999835	-0.3993510847032338	-0.9664556787279158
2.510999999999834	-0.4003173051748533	-0.96598176335785
2.511999999999834	-0.4012830650614202	-0.9655345117218624
2.512999999999834	-0.4022483898122129	-0.9651114948177636
2.513999999999834	-0.4032133025686474	-0.9647105259312833
2.514999999999834	-0.4041778243944519	-0.9643296364089673
2.515999999999834	-0.405141974482826	-0.9639670538533802
2.516999999999834	-0.4061012954612681	-0.9546714354384597
2.517999999999834	-0.4070528850707597	-0.9485043453112217
2.518999999999834	-0.4080027947293727	-0.9513115411576542
2.519999999999833	-0.4089543150637953	-0.9517256925252822
2.520999999999833	-0.4099064813421051	-0.9526034280176654
2.521999999999833	-0.4108594070028228	-0.9532444560238006
2.522999999999833	-0.4118129490450568	-0.9538361902551686
2.523999999999833	-0.4127670403183716	-0.9543429176378057
2.524999999999833	-0.4137216052884147	-0.9547835834419985
2.525999999999833	-0.4146765800336911	-0.9551624680698986
2.526999999999833	-0.4156319062947585	-0.9554866152046206
2.527999999999833	-0.4165875321044741	-0.9557615657381674
2.528999999999832	-0.417538935977319	-0.9470427580983689
2.529999999999832	-0.4184831579582333	-0.9413978091352447
2.530999999999832	-0.4194217226439025	-0.9357281893595656
2.531999999999832	-0.4203594305363786	-0.9396842272370457
2.532999999999832	-0.421299754976232	-0.9409612761328707
2.533999999999832	-0.4222415685816894	-0.9426625545238463
2.534999999999832	-0.4231849201530857	-0.9440372039240188
2.535999999999832	-0.4241295880693062	-0.9452952408906465
2.536999999999832	-0.4250754395197413	-0.9464042695562356
2.537999999999832	-0.4260223385890524	-0.9473904763413117
2.538999999999831	-0.4269701673220143	-0.9482635949864576
2.539999999999831	-0.4279143438574016	-0.940086095727535
2.540999999999831	-0.4288518541371714	-0.9349311090558368
2.541999999999831	-0.4297841739947584	-0.9297052713609737
2.542999999999831	-0.4307115851694739	-0.9251137622838377
2.543999999999831	-0.4316346032432235	-0.9209190865386615
2.544999999999831	-0.4325536271775635	-0.9171254991317949
2.545999999999831	-0.4334735076115516	-0.9226320841700678
2.546999999999831	-0.4343974972349249	-0.9253438646367237
2.54799999999983	-0.4353243364964655	-0.9283313517534977
2.54899999999983	-0.4362539386267725	-0.9308695937440552
2.54999999999983	-0.4371859641296942	-0.93317808978284
2.55099999999983	-0.4381201730570065	-0.9352364361937952
2.55199999999983	-0.4390518584344966	-0.9281310005807974
2.55299999999983	-0.4399778974167908	-0.9239436673500729
2.55399999999983	-0.440899666960084	-0.9195921392046861
2.55499999999983	-0.4418173600410976	-0.915790758713631
2.55599999999983	-0.4427314122835498	-0.9123104764398167
2.556999999999829	-0.443642150689512	-0.90916309891577
2.557999999999829	-0.4445498862370504	-0.9063047716575896
2.558999999999829	-0.4454593699321919	-0.9126593893098679
2.559999999999829	-0.4463737698898834	-0.9161372807147466
2.560999999999829	-0.4472917491524566	-0.9198179877981161
2.561999999999829	-0.4482131515914231	-0.9229836227990464
2.562999999999829	-0.4491375751953328	-0.9258603084257576
2.563999999999829	-0.4500602488780492	-0.9194837880705302
2.564999999999829	-0.4509779716454511	-0.9159584967824014
2.565999999999828	-0.4518920552154021	-0.912205407491909
2.566999999999828	-0.4528026325608707	-0.9089460616556831
2.567999999999828	-0.453710085608933	-0.905956825153287
